<svg width="306" height="81" viewBox="0 0 306 81" fill="none" xmlns="http://www.w3.org/2000/svg">
<g clip-path="url(#clip0_18_98)">
<circle cx="290.207" cy="24.2074" r="16.2074" fill="#3BF874"/>
<rect x="286.684" y="15.0468" width="7.04668" height="18.3214" rx="1.057" fill="white"/>
<rect x="299.368" y="20.684" width="7.04668" height="18.3214" rx="1.057" transform="rotate(90 299.368 20.684)" fill="white"/>
<path d="M67.063 70.4221C65.2059 70.4221 63.5457 70.1337 62.0826 69.5568C60.6194 68.9659 59.3814 68.157 58.3684 67.1299C57.3695 66.1029 56.6027 64.9211 56.0681 63.5846C55.5476 62.248 55.2873 60.8341 55.2873 59.3428V58.5409C55.2873 56.8667 55.5194 55.3191 55.9837 53.8982C56.448 52.4631 57.1374 51.211 58.0518 50.1418C58.9663 49.0725 60.1129 48.2425 61.4917 47.6516C62.8704 47.0466 64.4743 46.7441 66.3032 46.7441C67.9212 46.7441 69.3703 47.0044 70.6505 47.5249C71.9308 48.0455 73.0141 48.7911 73.9004 49.7619C74.8009 50.7327 75.4832 51.9074 75.9475 53.2862C76.4258 54.6649 76.665 56.2125 76.665 57.9289V60.82H58.0096V56.3672H69.722V55.8186C69.7361 55.0588 69.6024 54.4117 69.321 53.8771C69.0537 53.3424 68.6598 52.9344 68.1392 52.6531C67.6187 52.3717 66.9856 52.231 66.2399 52.231C65.4661 52.231 64.826 52.3998 64.3195 52.7375C63.8271 53.0751 63.4402 53.5394 63.1588 54.1303C62.8915 54.7071 62.7016 55.3754 62.5891 56.1351C62.4765 56.8948 62.4202 57.6968 62.4202 58.5409V59.3428C62.4202 60.1869 62.5328 60.9537 62.7579 61.6431C62.9971 62.3325 63.3347 62.9233 63.7708 63.4158C64.221 63.8941 64.7557 64.2669 65.3747 64.5342C66.0078 64.8015 66.7253 64.9352 67.5272 64.9352C68.498 64.9352 69.4547 64.7523 70.3973 64.3865C71.3399 64.0207 72.1489 63.4158 72.8242 62.5716L76.053 66.4124C75.5887 67.0737 74.9275 67.7138 74.0693 68.3328C73.2251 68.9519 72.2122 69.4583 71.0304 69.8523C69.8486 70.2321 68.5261 70.4221 67.063 70.4221ZM91.4162 64.2599V54.8478C91.4162 54.2006 91.3248 53.6449 91.1419 53.1806C90.959 52.7164 90.6706 52.3576 90.2766 52.1044C89.8827 51.8371 89.3551 51.7034 88.6939 51.7034C88.1593 51.7034 87.702 51.7949 87.3222 51.9778C86.9423 52.1606 86.6539 52.435 86.4569 52.8008C86.26 53.1666 86.1615 53.6308 86.1615 54.1936H79.0497C79.0497 53.1384 79.2818 52.1606 79.7461 51.2602C80.2244 50.3458 80.8997 49.5509 81.772 48.8756C82.6583 48.2003 83.7135 47.6797 84.9375 47.3139C86.1756 46.9341 87.5543 46.7441 89.0737 46.7441C90.8886 46.7441 92.5066 47.0466 93.9275 47.6516C95.3625 48.2565 96.4951 49.164 97.3251 50.3739C98.1552 51.5698 98.5702 53.0751 98.5702 54.89V64.2388C98.5702 65.7301 98.6547 66.8626 98.8235 67.6364C98.9923 68.3961 99.2315 69.0644 99.541 69.6412V70H92.4081C92.0704 69.2966 91.8172 68.4384 91.6484 67.4254C91.4936 66.3984 91.4162 65.3432 91.4162 64.2599ZM92.2815 56.0507L92.3237 59.8493H89.1793C88.518 59.8493 87.9553 59.9407 87.491 60.1236C87.0408 60.3065 86.675 60.5598 86.3936 60.8834C86.1263 61.1929 85.9293 61.5446 85.8027 61.9385C85.6902 62.3325 85.6339 62.7475 85.6339 63.1836C85.6339 63.6057 85.7324 63.9855 85.9293 64.3232C86.1404 64.6468 86.4218 64.9 86.7735 65.0829C87.1252 65.2658 87.5191 65.3573 87.9553 65.3573C88.7431 65.3573 89.4114 65.2095 89.9601 64.9141C90.5228 64.6046 90.9519 64.2318 91.2474 63.7956C91.5428 63.3595 91.6906 62.9515 91.6906 62.5716L93.2522 65.4839C92.9708 66.0466 92.6472 66.6164 92.2815 67.1933C91.9297 67.7701 91.4866 68.3047 90.9519 68.7971C90.4314 69.2755 89.7913 69.6694 89.0315 69.9789C88.2718 70.2743 87.3503 70.4221 86.267 70.4221C84.8601 70.4221 83.5658 70.1337 82.384 69.5568C81.2163 68.98 80.2807 68.1781 79.5772 67.151C78.8738 66.11 78.5221 64.9141 78.5221 63.5635C78.5221 62.3817 78.7331 61.3265 79.1552 60.398C79.5913 59.4694 80.2455 58.6816 81.1178 58.0344C81.9901 57.3872 83.1015 56.8948 84.4521 56.5572C85.8027 56.2195 87.3925 56.0507 89.2215 56.0507H92.2815ZM110.029 37.5853V70H102.896V37.5853H110.029ZM126.448 47.1662V52.1044H112.688V47.1662H126.448ZM115.58 41.4894H122.691V62.5505C122.691 63.1555 122.762 63.6268 122.902 63.9644C123.043 64.288 123.282 64.5202 123.62 64.6609C123.972 64.7875 124.436 64.8508 125.013 64.8508C125.421 64.8508 125.758 64.8438 126.026 64.8297C126.293 64.8015 126.546 64.7664 126.785 64.7242V69.8101C126.18 70.007 125.547 70.1548 124.886 70.2532C124.225 70.3658 123.521 70.4221 122.776 70.4221C121.256 70.4221 119.955 70.1829 118.872 69.7046C117.802 69.2262 116.986 68.4735 116.424 67.4465C115.861 66.4195 115.58 65.0829 115.58 63.4369V41.4894ZM136.24 37.5853V70H129.128V37.5853H136.24ZM135.396 57.8023L133.728 57.8445C133.728 56.2406 133.925 54.7634 134.319 53.4128C134.713 52.0622 135.276 50.8874 136.008 49.8885C136.739 48.8896 137.618 48.1158 138.645 47.5672C139.673 47.0185 140.812 46.7441 142.064 46.7441C143.19 46.7441 144.217 46.9059 145.145 47.2295C146.088 47.5531 146.897 48.0736 147.572 48.7911C148.262 49.5087 148.789 50.4442 149.155 51.5979C149.535 52.7515 149.725 54.1584 149.725 55.8186V70H142.571V55.7764C142.571 54.8478 142.437 54.1303 142.17 53.6238C141.916 53.1033 141.551 52.7445 141.072 52.5475C140.594 52.3365 140.01 52.231 139.321 52.231C138.491 52.231 137.815 52.3717 137.295 52.6531C136.774 52.9344 136.373 53.3284 136.092 53.8348C135.825 54.3273 135.642 54.9111 135.543 55.5864C135.445 56.2617 135.396 57.0003 135.396 57.8023ZM160.677 67.3199L166.586 47.1662H174.226L165.046 73.3976C164.849 73.9745 164.589 74.5935 164.265 75.2547C163.941 75.93 163.498 76.5702 162.935 77.1751C162.373 77.7801 161.648 78.2725 160.762 78.6524C159.89 79.0322 158.806 79.2222 157.512 79.2222C156.822 79.2222 156.316 79.187 155.992 79.1166C155.683 79.0604 155.205 78.9548 154.557 78.8001V73.7142C154.74 73.7142 154.895 73.7142 155.022 73.7142C155.162 73.7142 155.317 73.7142 155.486 73.7142C156.246 73.7142 156.851 73.6368 157.301 73.4821C157.765 73.3273 158.117 73.1022 158.356 72.8067C158.609 72.5113 158.806 72.1525 158.947 71.7305L160.677 67.3199ZM159.179 47.1662L163.674 63.1414L164.455 70.6753H159.686L151.561 47.1662H159.179ZM202.082 39.2735V70H194.696L183.828 50.8804V70H176.42V39.2735H183.828L194.696 58.3932V39.2735H202.082ZM218.289 64.2599V54.8478C218.289 54.2006 218.198 53.6449 218.015 53.1806C217.832 52.7164 217.544 52.3576 217.15 52.1044C216.756 51.8371 216.228 51.7034 215.567 51.7034C215.033 51.7034 214.575 51.7949 214.195 51.9778C213.816 52.1606 213.527 52.435 213.33 52.8008C213.133 53.1666 213.035 53.6308 213.035 54.1936H205.923C205.923 53.1384 206.155 52.1606 206.619 51.2602C207.098 50.3458 207.773 49.5509 208.645 48.8756C209.532 48.2003 210.587 47.6797 211.811 47.3139C213.049 46.9341 214.428 46.7441 215.947 46.7441C217.762 46.7441 219.38 47.0466 220.801 47.6516C222.236 48.2565 223.368 49.164 224.198 50.3739C225.028 51.5698 225.443 53.0751 225.443 54.89V64.2388C225.443 65.7301 225.528 66.8626 225.697 67.6364C225.866 68.3961 226.105 69.0644 226.414 69.6412V70H219.281C218.944 69.2966 218.69 68.4384 218.522 67.4254C218.367 66.3984 218.289 65.3432 218.289 64.2599ZM219.155 56.0507L219.197 59.8493H216.053C215.391 59.8493 214.829 59.9407 214.364 60.1236C213.914 60.3065 213.548 60.5598 213.267 60.8834C213 61.1929 212.803 61.5446 212.676 61.9385C212.563 62.3325 212.507 62.7475 212.507 63.1836C212.507 63.6057 212.606 63.9855 212.803 64.3232C213.014 64.6468 213.295 64.9 213.647 65.0829C213.998 65.2658 214.392 65.3573 214.829 65.3573C215.616 65.3573 216.285 65.2095 216.833 64.9141C217.396 64.6046 217.825 64.2318 218.121 63.7956C218.416 63.3595 218.564 62.9515 218.564 62.5716L220.125 65.4839C219.844 66.0466 219.52 66.6164 219.155 67.1933C218.803 67.7701 218.36 68.3047 217.825 68.7971C217.305 69.2755 216.665 69.6694 215.905 69.9789C215.145 70.2743 214.224 70.4221 213.14 70.4221C211.733 70.4221 210.439 70.1337 209.257 69.5568C208.09 68.98 207.154 68.1781 206.45 67.151C205.747 66.11 205.395 64.9141 205.395 63.5635C205.395 62.3817 205.606 61.3265 206.028 60.398C206.465 59.4694 207.119 58.6816 207.991 58.0344C208.863 57.3872 209.975 56.8948 211.325 56.5572C212.676 56.2195 214.266 56.0507 216.095 56.0507H219.155ZM241.419 47.1662V52.1044H227.659V47.1662H241.419ZM230.551 41.4894H237.662V62.5505C237.662 63.1555 237.733 63.6268 237.873 63.9644C238.014 64.288 238.253 64.5202 238.591 64.6609C238.943 64.7875 239.407 64.8508 239.984 64.8508C240.392 64.8508 240.729 64.8438 240.997 64.8297C241.264 64.8015 241.517 64.7664 241.756 64.7242V69.8101C241.151 70.007 240.518 70.1548 239.857 70.2532C239.196 70.3658 238.492 70.4221 237.747 70.4221C236.227 70.4221 234.926 70.1829 233.843 69.7046C232.773 69.2262 231.957 68.4735 231.395 67.4465C230.832 66.4195 230.551 65.0829 230.551 63.4369V41.4894ZM242.727 58.8152V58.3721C242.727 56.6979 242.966 55.1573 243.445 53.7504C243.923 52.3295 244.626 51.0984 245.555 50.0573C246.484 49.0163 247.63 48.2073 248.995 47.6305C250.36 47.0396 251.935 46.7441 253.722 46.7441C255.523 46.7441 257.106 47.0396 258.47 47.6305C259.849 48.2073 261.003 49.0163 261.931 50.0573C262.86 51.0984 263.563 52.3295 264.042 53.7504C264.52 55.1573 264.759 56.6979 264.759 58.3721V58.8152C264.759 60.4754 264.52 62.0159 264.042 63.4369C263.563 64.8438 262.86 66.0748 261.931 67.1299C261.003 68.171 259.856 68.98 258.491 69.5568C257.127 70.1337 255.551 70.4221 253.764 70.4221C251.977 70.4221 250.395 70.1337 249.016 69.5568C247.637 68.98 246.484 68.171 245.555 67.1299C244.626 66.0748 243.923 64.8438 243.445 63.4369C242.966 62.0159 242.727 60.4754 242.727 58.8152ZM249.839 58.3721V58.8152C249.839 59.6734 249.902 60.4754 250.029 61.221C250.156 61.9667 250.367 62.6209 250.662 63.1836C250.957 63.7323 251.358 64.1614 251.865 64.4709C252.371 64.7804 253.004 64.9352 253.764 64.9352C254.51 64.9352 255.129 64.7804 255.621 64.4709C256.128 64.1614 256.529 63.7323 256.824 63.1836C257.12 62.6209 257.331 61.9667 257.457 61.221C257.584 60.4754 257.647 59.6734 257.647 58.8152V58.3721C257.647 57.542 257.584 56.7612 257.457 56.0296C257.331 55.2839 257.12 54.6297 256.824 54.067C256.529 53.4902 256.128 53.04 255.621 52.7164C255.115 52.3928 254.482 52.231 253.722 52.231C252.976 52.231 252.35 52.3928 251.844 52.7164C251.351 53.04 250.957 53.4902 250.662 54.067C250.367 54.6297 250.156 55.2839 250.029 56.0296C249.902 56.7612 249.839 57.542 249.839 58.3721ZM275.1 52.8219V70H267.988V47.1662H274.635L275.1 52.8219ZM281.853 46.9974L281.726 53.6027C281.445 53.5746 281.065 53.5394 280.587 53.4972C280.108 53.455 279.707 53.4339 279.384 53.4339C278.554 53.4339 277.836 53.5324 277.231 53.7293C276.64 53.9122 276.148 54.1936 275.754 54.5735C275.374 54.9393 275.093 55.4035 274.91 55.9663C274.741 56.529 274.664 57.1832 274.678 57.9289L273.39 57.0848C273.39 55.5512 273.538 54.1584 273.833 52.9063C274.143 51.6401 274.579 50.5498 275.142 49.6353C275.705 48.7067 276.387 47.9963 277.189 47.5038C277.991 46.9974 278.891 46.7441 279.89 46.7441C280.242 46.7441 280.587 46.7652 280.924 46.8074C281.276 46.8496 281.585 46.913 281.853 46.9974Z" fill="url(#paint0_linear_18_98)"/>
<path fill-rule="evenodd" clip-rule="evenodd" d="M32 2.20078C32 0.571162 33.1281 -0.491805 34.0911 0.230468L50 12.162V66.6985C50 69.166 48.2788 70.7592 46.8324 69.6305L32.7861 58.6692C32.3034 58.2926 32 57.5381 32 56.7146V2.20078Z" fill="#65FB98"/>
<path d="M0 32H32.0009L50.0005 40.5H18.325L0 32Z" fill="url(#paint1_linear_18_98)"/>
<path fill-rule="evenodd" clip-rule="evenodd" d="M0 2.20078C0 0.571162 1.12807 -0.491805 2.09111 0.230468L18 12.162V66.6985C18 69.166 16.2788 70.7592 14.8324 69.6305L0.786121 58.6692C0.303408 58.2926 0 57.5381 0 56.7146V2.20078Z" fill="url(#paint2_linear_18_98)"/>
</g>
<defs>
<linearGradient id="paint0_linear_18_98" x1="33.222" y1="69.7153" x2="298.072" y2="131.788" gradientUnits="userSpaceOnUse">
<stop stop-color="#3EF63A"/>
<stop offset="1" stop-color="#3AFAA9"/>
</linearGradient>
<linearGradient id="paint1_linear_18_98" x1="12" y1="23" x2="48" y2="62.5" gradientUnits="userSpaceOnUse">
<stop stop-color="#59F73F"/>
<stop offset="1" stop-color="#53B3F8"/>
</linearGradient>
<linearGradient id="paint2_linear_18_98" x1="-1.4012" y1="-27.451" x2="39.9506" y2="-26.307" gradientUnits="userSpaceOnUse">
<stop stop-color="#49F63A"/>
<stop offset="1" stop-color="#3AC0FA"/>
</linearGradient>
<clipPath id="clip0_18_98">
<rect width="306" height="81" fill="white"/>
</clipPath>
</defs>
</svg>
