<svg width="187" height="83" viewBox="0 0 187 83" fill="none" xmlns="http://www.w3.org/2000/svg">
<path d="M54.1185 60.8152V60.3721C54.1185 58.6979 54.3576 57.1573 54.836 55.7504C55.3143 54.3295 56.0178 53.0984 56.9463 52.0573C57.8749 51.0163 59.0215 50.2073 60.3862 49.6305C61.7508 49.0396 63.3266 48.7441 65.1133 48.7441C66.9141 48.7441 68.4969 49.0396 69.8616 49.6305C71.2403 50.2073 72.394 51.0163 73.3225 52.0573C74.2511 53.0984 74.9545 54.3295 75.4328 55.7504C75.9112 57.1573 76.1504 58.6979 76.1504 60.3721V60.8152C76.1504 62.4754 75.9112 64.0159 75.4328 65.4369C74.9545 66.8438 74.2511 68.0748 73.3225 69.1299C72.394 70.171 71.2474 70.98 69.8827 71.5568C68.518 72.1337 66.9423 72.4221 65.1555 72.4221C63.3688 72.4221 61.786 72.1337 60.4073 71.5568C59.0285 70.98 57.8749 70.171 56.9463 69.1299C56.0178 68.0748 55.3143 66.8438 54.836 65.4369C54.3576 64.0159 54.1185 62.4754 54.1185 60.8152ZM61.2303 60.3721V60.8152C61.2303 61.6734 61.2936 62.4754 61.4202 63.221C61.5469 63.9667 61.7579 64.6209 62.0533 65.1836C62.3488 65.7323 62.7497 66.1614 63.2562 66.4709C63.7627 66.7804 64.3958 66.9352 65.1555 66.9352C65.9012 66.9352 66.5202 66.7804 67.0126 66.4709C67.5191 66.1614 67.9201 65.7323 68.2155 65.1836C68.511 64.6209 68.722 63.9667 68.8486 63.221C68.9752 62.4754 69.0385 61.6734 69.0385 60.8152V60.3721C69.0385 59.542 68.9752 58.7612 68.8486 58.0296C68.722 57.2839 68.511 56.6297 68.2155 56.067C67.9201 55.4902 67.5191 55.04 67.0126 54.7164C66.5061 54.3928 65.873 54.231 65.1133 54.231C64.3677 54.231 63.7416 54.3928 63.2351 54.7164C62.7427 55.04 62.3488 55.4902 62.0533 56.067C61.7579 56.6297 61.5469 57.2839 61.4202 58.0296C61.2936 58.7612 61.2303 59.542 61.2303 60.3721ZM87.2085 67.1251L91.7035 49.1662H99.1952L91.7246 72H87.2929L87.2085 67.1251ZM84.5495 49.1662L88.9812 67.1251L88.939 72H84.4862L77.0367 49.1662H84.5495ZM112.068 72.4221C110.211 72.4221 108.551 72.1337 107.088 71.5568C105.625 70.9659 104.387 70.157 103.374 69.1299C102.375 68.1029 101.608 66.9211 101.073 65.5846C100.553 64.248 100.293 62.8341 100.293 61.3428V60.5409C100.293 58.8667 100.525 57.3191 100.989 55.8982C101.453 54.4631 102.143 53.211 103.057 52.1418C103.972 51.0725 105.118 50.2425 106.497 49.6516C107.876 49.0466 109.48 48.7441 111.309 48.7441C112.926 48.7441 114.376 49.0044 115.656 49.5249C116.936 50.0455 118.019 50.7911 118.906 51.7619C119.806 52.7327 120.488 53.9074 120.953 55.2862C121.431 56.6649 121.67 58.2125 121.67 59.9289V62.82H103.015V58.3672H114.727V57.8186C114.741 57.0588 114.608 56.4117 114.326 55.8771C114.059 55.3424 113.665 54.9344 113.145 54.6531C112.624 54.3717 111.991 54.231 111.245 54.231C110.471 54.231 109.831 54.3998 109.325 54.7375C108.832 55.0751 108.445 55.5394 108.164 56.1303C107.897 56.7071 107.707 57.3754 107.594 58.1351C107.482 58.8948 107.426 59.6968 107.426 60.5409V61.3428C107.426 62.1869 107.538 62.9537 107.763 63.6431C108.002 64.3325 108.34 64.9233 108.776 65.4158C109.226 65.8941 109.761 66.2669 110.38 66.5342C111.013 66.8015 111.731 66.9352 112.533 66.9352C113.503 66.9352 114.46 66.7523 115.403 66.3865C116.345 66.0207 117.154 65.4158 117.829 64.5716L121.058 68.4124C120.594 69.0737 119.933 69.7138 119.075 70.3328C118.23 70.9519 117.217 71.4583 116.036 71.8523C114.854 72.2321 113.531 72.4221 112.068 72.4221ZM131.547 54.0411V72H124.435V49.1662H131.103L131.547 54.0411ZM130.702 59.8023L129.035 59.8445C129.035 58.0999 129.246 56.5453 129.668 55.1806C130.09 53.8019 130.688 52.6342 131.462 51.6775C132.236 50.7208 133.158 49.9963 134.227 49.5038C135.31 48.9974 136.513 48.7441 137.835 48.7441C138.891 48.7441 139.854 48.8989 140.727 49.2084C141.613 49.5179 142.373 50.0174 143.006 50.7067C143.653 51.3961 144.145 52.3106 144.483 53.4502C144.835 54.5757 145.011 55.9685 145.011 57.6286V72H137.857V57.6075C137.857 56.693 137.73 55.9966 137.477 55.5183C137.223 55.0259 136.858 54.6882 136.379 54.5053C135.901 54.3224 135.317 54.231 134.628 54.231C133.896 54.231 133.277 54.3717 132.771 54.6531C132.264 54.9344 131.856 55.3284 131.547 55.8348C131.251 56.3273 131.033 56.9111 130.892 57.5864C130.766 58.2617 130.702 59.0003 130.702 59.8023ZM160.817 66.2599V56.8478C160.817 56.2006 160.725 55.6449 160.543 55.1806C160.36 54.7164 160.071 54.3576 159.677 54.1044C159.283 53.8371 158.756 53.7034 158.095 53.7034C157.56 53.7034 157.103 53.7949 156.723 53.9778C156.343 54.1606 156.055 54.435 155.858 54.8008C155.661 55.1666 155.562 55.6308 155.562 56.1936H148.45C148.45 55.1384 148.683 54.1606 149.147 53.2602C149.625 52.3458 150.3 51.5509 151.173 50.8756C152.059 50.2003 153.114 49.6797 154.338 49.3139C155.576 48.9341 156.955 48.7441 158.474 48.7441C160.289 48.7441 161.907 49.0466 163.328 49.6516C164.763 50.2565 165.896 51.164 166.726 52.3739C167.556 53.5698 167.971 55.0751 167.971 56.89V66.2388C167.971 67.7301 168.055 68.8626 168.224 69.6364C168.393 70.3961 168.632 71.0644 168.942 71.6412V72H161.809C161.471 71.2966 161.218 70.4384 161.049 69.4254C160.894 68.3984 160.817 67.3432 160.817 66.2599ZM161.682 58.0507L161.724 61.8493H158.58C157.919 61.8493 157.356 61.9407 156.892 62.1236C156.442 62.3065 156.076 62.5598 155.794 62.8834C155.527 63.1929 155.33 63.5446 155.203 63.9385C155.091 64.3325 155.035 64.7475 155.035 65.1836C155.035 65.6057 155.133 65.9855 155.33 66.3232C155.541 66.6468 155.822 66.9 156.174 67.0829C156.526 67.2658 156.92 67.3573 157.356 67.3573C158.144 67.3573 158.812 67.2095 159.361 66.9141C159.924 66.6046 160.353 66.2318 160.648 65.7956C160.944 65.3595 161.091 64.9515 161.091 64.5716L162.653 67.4839C162.372 68.0466 162.048 68.6164 161.682 69.1933C161.33 69.7701 160.887 70.3047 160.353 70.7971C159.832 71.2755 159.192 71.6694 158.432 71.9789C157.673 72.2743 156.751 72.4221 155.668 72.4221C154.261 72.4221 152.966 72.1337 151.785 71.5568C150.617 70.98 149.681 70.1781 148.978 69.151C148.275 68.11 147.923 66.9141 147.923 65.5635C147.923 64.3817 148.134 63.3265 148.556 62.398C148.992 61.4694 149.646 60.6816 150.519 60.0344C151.391 59.3872 152.502 58.8948 153.853 58.5572C155.203 58.2195 156.793 58.0507 158.622 58.0507H161.682Z" fill="url(#paint0_linear_188_91)"/>
<g clip-path="url(#clip0_188_91)">
<path fill-rule="evenodd" clip-rule="evenodd" d="M32 4.20078C32 2.57116 33.1281 1.50819 34.0911 2.23047L50 14.162V68.6985C50 71.166 48.2788 72.7592 46.8324 71.6305L32.7861 60.6692C32.3034 60.2926 32 59.5381 32 58.7146V4.20078Z" fill="url(#paint1_linear_188_91)"/>
<path d="M18.5 12.5L29.5 35.5L47.5 72L32.0009 60.5L2 0L18.5 12.5Z" fill="url(#paint2_linear_188_91)"/>
<path fill-rule="evenodd" clip-rule="evenodd" d="M0 2.20078C0 0.571162 1.12807 -0.491805 2.09111 0.230468L18 12.162V66.6985C18 69.166 16.2788 70.7592 14.8324 69.6305L0.786121 58.6692C0.303408 58.2926 0 57.5381 0 56.7146V2.20078Z" fill="url(#paint3_linear_188_91)"/>
</g>
<circle cx="170.207" cy="27.2074" r="16.2074" fill="#3BF874"/>
<rect x="166.684" y="18.0468" width="7.04668" height="18.3214" rx="1.057" fill="white"/>
<rect x="179.368" y="23.684" width="7.04668" height="18.3214" rx="1.057" transform="rotate(90 179.368 23.684)" fill="white"/>
<defs>
<linearGradient id="paint0_linear_188_91" x1="42.3842" y1="71.7153" x2="183.115" y2="88.5668" gradientUnits="userSpaceOnUse">
<stop stop-color="#3EF63A"/>
<stop offset="1" stop-color="#3AFAA9"/>
</linearGradient>
<linearGradient id="paint1_linear_188_91" x1="41" y1="2" x2="41" y2="72" gradientUnits="userSpaceOnUse">
<stop stop-color="#65FBD7"/>
<stop offset="1" stop-color="#69FF81"/>
</linearGradient>
<linearGradient id="paint2_linear_188_91" x1="12.0001" y1="24.9999" x2="48.0001" y2="64.4999" gradientUnits="userSpaceOnUse">
<stop stop-color="#59F73F"/>
<stop offset="1" stop-color="#53F8D0"/>
</linearGradient>
<linearGradient id="paint3_linear_188_91" x1="-1.4012" y1="-27.451" x2="39.9506" y2="-26.307" gradientUnits="userSpaceOnUse">
<stop stop-color="#49F63A"/>
<stop offset="1" stop-color="#3AC0FA"/>
</linearGradient>
<clipPath id="clip0_188_91">
<rect width="50" height="72" fill="white"/>
</clipPath>
</defs>
</svg>
